<?xml version="1.0" encoding="UTF-8" standalone="no"?><!-- Generator: Gravit.io --><svg xmlns="http://www.w3.org/2000/svg" xmlns:xlink="http://www.w3.org/1999/xlink" style="isolation:isolate" viewBox="0 0 560 315" width="560pt" height="315pt"><defs><clipPath id="_clipPath_sCDA8PKjfPlXNhPm68YcbTp5TTUIH6Kx"><rect width="560" height="315"/></clipPath></defs><g clip-path="url(#_clipPath_sCDA8PKjfPlXNhPm68YcbTp5TTUIH6Kx)"><g><g><path d=" M 128.134 53.863 L 132.733 62.056 L 137.332 70.249 C 141.302 77.321 137.941 83.063 129.83 83.063 L 120.941 83.063 L 112.051 83.063 C 103.94 83.063 100.579 77.321 104.549 70.249 L 109.148 62.056 L 113.747 53.863 C 117.717 46.79 124.164 46.79 128.134 53.863 Z " fill="rgb(255,221,0)"/><path d=" M 126.125 61.283 L 128.242 65.056 L 130.36 68.828 C 133.221 73.925 130.799 78.063 124.953 78.063 L 120.941 78.063 L 116.928 78.063 C 111.083 78.063 108.66 73.925 111.521 68.828 L 113.639 65.056 L 115.756 61.283 C 118.618 56.186 123.264 56.186 126.125 61.283 Z " fill="rgb(255,255,255)"/><text transform="matrix(1,0,0,1,149,77.632)" style="font-family:'Nunito';font-weight:400;font-size:30px;font-style:normal;fill:#000000;stroke:none;">AVENA</text></g></g><g style="isolation:isolate"/></g></svg>